<svg width="35" height="35" viewBox="0 0 35 35" fill="none" xmlns="http://www.w3.org/2000/svg">
<g clip-path="url(#clip0_105_590)">
<path d="M19.6191 19.6875C18.6735 18.9811 17.6538 18.4399 16.5601 18.064C15.4663 17.688 14.3213 17.5 13.125 17.5C12.1224 17.5 11.154 17.631 10.2197 17.8931C9.28548 18.1551 8.4139 18.5197 7.60498 18.9868C6.79606 19.4539 6.0612 20.0236 5.40039 20.6958C4.73958 21.368 4.16992 22.1086 3.69141 22.9175C3.21289 23.7264 2.84261 24.598 2.58057 25.5322C2.31852 26.4665 2.1875 27.4349 2.1875 28.4375H0C0 27.0703 0.199382 25.7544 0.598145 24.4897C0.996908 23.2251 1.57227 22.0573 2.32422 20.9863C3.07617 19.9154 3.96484 18.964 4.99023 18.1323C6.01562 17.3006 7.17773 16.6455 8.47656 16.167C7.83854 15.7682 7.26888 15.3011 6.76758 14.7656C6.26628 14.2301 5.83333 13.6377 5.46875 12.9883C5.10417 12.3389 4.83643 11.661 4.66553 10.9546C4.49463 10.2482 4.39779 9.51335 4.375 8.75C4.375 7.54232 4.60286 6.40869 5.05859 5.34912C5.51432 4.28955 6.14095 3.3667 6.93848 2.58057C7.736 1.79443 8.66455 1.16781 9.72412 0.700684C10.7837 0.233561 11.9173 0 13.125 0C14.3327 0 15.4663 0.227865 16.5259 0.683594C17.5854 1.13932 18.5083 1.76595 19.2944 2.56348C20.0806 3.361 20.7072 4.28955 21.1743 5.34912C21.6414 6.40869 21.875 7.54232 21.875 8.75C21.875 9.50195 21.7839 10.2368 21.6016 10.9546C21.4193 11.6724 21.1458 12.3503 20.7812 12.9883C20.4167 13.6263 19.9837 14.2131 19.4824 14.7485C18.9811 15.284 18.4058 15.7568 17.7563 16.167C18.4399 16.429 19.0837 16.7367 19.6875 17.0898V19.6875H19.6191ZM6.5625 8.75C6.5625 9.66146 6.7334 10.5103 7.0752 11.2964C7.41699 12.0825 7.88411 12.7775 8.47656 13.3813C9.06901 13.9852 9.764 14.458 10.5615 14.7998C11.359 15.1416 12.2135 15.3125 13.125 15.3125C14.0251 15.3125 14.8739 15.1416 15.6714 14.7998C16.4689 14.458 17.1639 13.9909 17.7563 13.3984C18.3488 12.806 18.8216 12.111 19.1748 11.3135C19.528 10.516 19.6989 9.66146 19.6875 8.75C19.6875 7.84994 19.5166 7.00114 19.1748 6.20361C18.833 5.40609 18.3659 4.7111 17.7734 4.11865C17.181 3.5262 16.4803 3.05339 15.6714 2.7002C14.8625 2.34701 14.0137 2.17611 13.125 2.1875C12.2135 2.1875 11.3647 2.3584 10.5786 2.7002C9.79248 3.04199 9.09749 3.50911 8.49365 4.10156C7.88981 4.69401 7.41699 5.39469 7.0752 6.20361C6.7334 7.01253 6.5625 7.86133 6.5625 8.75ZM35 21.875V35H17.5V21.875H21.875V17.5H30.625V21.875H35ZM24.0625 21.875H28.4375V19.6875H24.0625V21.875ZM32.8125 28.4375H30.625V30.625H28.4375V28.4375H24.0625V30.625H21.875V28.4375H19.6875V32.8125H32.8125V28.4375ZM32.8125 24.0625H19.6875V26.25H32.8125V24.0625Z" fill="white"/>
</g>
<defs>
<clipPath id="clip0_105_590">
<rect width="35" height="35" fill="white"/>
</clipPath>
</defs>
</svg>
