<svg width="36" height="39" viewBox="0 0 36 39" fill="none" xmlns="http://www.w3.org/2000/svg">
<path fill-rule="evenodd" clip-rule="evenodd" d="M17.9999 37.7005C20.8136 37.7005 25.6266 34.0304 25.6266 19.3502C25.6266 4.67005 20.8136 1 17.9999 1C15.1862 1 10.374 4.91734 10.374 19.3502C10.374 33.7831 15.1862 37.7005 17.9999 37.7005Z" stroke="white" stroke-width="2" stroke-linecap="round" stroke-linejoin="round"/>
<path fill-rule="evenodd" clip-rule="evenodd" d="M1.48839 28.9622C2.89524 31.4194 8.60391 33.6992 21.8126 26.0095C35.0213 18.3199 35.9178 12.1953 34.5101 9.73899C33.1032 7.28093 27.1726 5.13046 14.1868 12.6908C1.20003 20.2511 0.081538 26.505 1.48839 28.9622Z" stroke="white" stroke-width="2" stroke-linecap="round" stroke-linejoin="round"/>
<path fill-rule="evenodd" clip-rule="evenodd" d="M1.48898 9.73824C0.0821271 12.1954 0.977793 18.32 14.1873 26.0097C27.396 33.6993 33.1038 31.4195 34.5107 28.9632C35.9175 26.5051 34.799 20.2512 21.8132 12.6909C8.82645 5.13058 2.89583 7.28106 1.48898 9.73824Z" stroke="white" stroke-width="2" stroke-linecap="round" stroke-linejoin="round"/>
</svg>
