<svg width="35" height="35" viewBox="0 0 35 35" fill="none" xmlns="http://www.w3.org/2000/svg">
<path d="M20.7812 26.25H25.1562V30.625H20.7812V26.25ZM28.4375 26.25H32.8125V30.625H28.4375V26.25ZM20.7812 18.5938H25.1562V22.9688H20.7812V18.5938ZM28.4375 18.5938H32.8125V22.9688H28.4375V18.5938Z" fill="white"/>
<path d="M18.5938 26.25H4.375V10.9375H30.625V16.4062H32.8125V10.9375C32.8119 10.3575 32.5813 9.80145 32.1712 9.39134C31.761 8.98123 31.205 8.75058 30.625 8.75H24.0625V4.375C24.0619 3.79502 23.8313 3.23895 23.4212 2.82884C23.011 2.41873 22.455 2.18808 21.875 2.1875H13.125C12.545 2.18808 11.989 2.41873 11.5788 2.82884C11.1687 3.23895 10.9381 3.79502 10.9375 4.375V8.75H4.375C3.79502 8.75058 3.23895 8.98123 2.82884 9.39134C2.41873 9.80145 2.18808 10.3575 2.1875 10.9375V26.25C2.18808 26.83 2.41873 27.386 2.82884 27.7962C3.23895 28.2063 3.79502 28.4369 4.375 28.4375H18.5938V26.25ZM13.125 4.375H21.875V8.75H13.125V4.375Z" fill="white"/>
</svg>
