<svg width="35" height="35" viewBox="0 0 35 35" fill="none" xmlns="http://www.w3.org/2000/svg">
<path d="M19.25 5.25C19.25 4.78587 19.4344 4.34075 19.7626 4.01256C20.0908 3.68437 20.5359 3.5 21 3.5H26.25C26.7141 3.5 27.1592 3.68437 27.4874 4.01256C27.8156 4.34075 28 4.78587 28 5.25V8.75C28 9.21413 27.8156 9.65925 27.4874 9.98744C27.1592 10.3156 26.7141 10.5 26.25 10.5H21C20.5359 10.5 20.0908 10.3156 19.7626 9.98744C19.4344 9.65925 19.25 9.21413 19.25 8.75V5.25ZM26.25 5.25H21V8.75H26.25V5.25ZM23.0055 12.5055C23.0868 12.424 23.1833 12.3594 23.2896 12.3153C23.3959 12.2711 23.5099 12.2484 23.625 12.2484C23.7401 12.2484 23.8541 12.2711 23.9604 12.3153C24.0667 12.3594 24.1632 12.424 24.2445 12.5055L27.7445 16.0055C27.9088 16.1698 28.0011 16.3926 28.0011 16.625C28.0011 16.8574 27.9088 17.0802 27.7445 17.2445C27.5802 17.4088 27.3574 17.5011 27.125 17.5011C26.8926 17.5011 26.6698 17.4088 26.5055 17.2445L24.5 15.2372V25.375C24.5 25.6071 24.4078 25.8296 24.2437 25.9937C24.0796 26.1578 23.8571 26.25 23.625 26.25C23.3929 26.25 23.1704 26.1578 23.0063 25.9937C22.8422 25.8296 22.75 25.6071 22.75 25.375V15.2372L20.7445 17.2445C20.5802 17.4088 20.3574 17.5011 20.125 17.5011C19.8926 17.5011 19.6698 17.4088 19.5055 17.2445C19.3412 17.0802 19.2489 16.8574 19.2489 16.625C19.2489 16.3926 19.3412 16.1698 19.5055 16.0055L23.0055 12.5055ZM7 21C7 20.5359 7.18437 20.0908 7.51256 19.7626C7.84075 19.4344 8.28587 19.25 8.75 19.25H14C14.4641 19.25 14.9092 19.4344 15.2374 19.7626C15.5656 20.0908 15.75 20.5359 15.75 21V24.5C15.75 24.9641 15.5656 25.4092 15.2374 25.7374C14.9092 26.0656 14.4641 26.25 14 26.25H8.75C8.28587 26.25 7.84075 26.0656 7.51256 25.7374C7.18437 25.4092 7 24.9641 7 24.5V21ZM14 21H8.75V24.5H14V21ZM4.375 22.75C4.60706 22.75 4.82962 22.8422 4.99372 23.0063C5.15781 23.1704 5.25 23.3929 5.25 23.625V26.25C5.25 26.7141 5.43437 27.1592 5.76256 27.4874C6.09075 27.8156 6.53587 28 7 28H28C28.4641 28 28.9093 27.8156 29.2374 27.4874C29.5656 27.1592 29.75 26.7141 29.75 26.25V23.625C29.75 23.3929 29.8422 23.1704 30.0063 23.0063C30.1704 22.8422 30.3929 22.75 30.625 22.75C30.8571 22.75 31.0796 22.8422 31.2437 23.0063C31.4078 23.1704 31.5 23.3929 31.5 23.625V26.25C31.5 27.1783 31.1313 28.0685 30.4749 28.7249C29.8185 29.3813 28.9283 29.75 28 29.75H7C6.07174 29.75 5.1815 29.3813 4.52513 28.7249C3.86875 28.0685 3.5 27.1783 3.5 26.25V23.625C3.5 23.3929 3.59219 23.1704 3.75628 23.0063C3.92038 22.8422 4.14294 22.75 4.375 22.75Z" fill="white"/>
</svg>
