<svg width="35" height="35" viewBox="0 0 35 35" fill="none" xmlns="http://www.w3.org/2000/svg">
<path d="M8.75 10.9375H17.5V13.125H8.75V10.9375ZM8.75 6.5625H21.875V8.75H8.75V6.5625ZM8.75 2.1875H21.875V4.375H8.75V2.1875Z" fill="white"/>
<path d="M5.15266 30.625L11.3116 19.6919L19.4425 26.7903C19.6883 27.009 19.9802 27.1695 20.2966 27.2597C20.613 27.35 20.9457 27.3677 21.2699 27.3116C21.5941 27.2554 21.9014 27.1269 22.169 26.9355C22.4367 26.7441 22.6577 26.4949 22.8156 26.2062L30.4391 14.828L28.6223 13.6095L20.9661 25.037L20.8895 25.1497L12.7575 18.0512C12.5118 17.8338 12.2204 17.6743 11.9048 17.5845C11.5891 17.4948 11.2574 17.4771 10.934 17.5327C10.6107 17.5884 10.3039 17.716 10.0364 17.906C9.76899 18.0961 9.54764 18.3438 9.38875 18.6309L4.375 27.5439V2.1875H2.1875V30.625C2.18808 31.205 2.41873 31.761 2.82884 32.1712C3.23895 32.5813 3.79502 32.8119 4.375 32.8125H32.8125V30.625H5.15266Z" fill="white"/>
</svg>
