<svg width="40" height="40" viewBox="0 0 40 40" fill="none" xmlns="http://www.w3.org/2000/svg">
<path d="M36.6046 4.56517C36.4968 4.472 36.3655 4.41009 36.2251 4.38613C36.0846 4.36217 35.9403 4.37707 35.8077 4.42924L4.14208 16.8214C3.81927 16.9467 3.54594 17.1736 3.36329 17.4677C3.18063 17.7619 3.09854 18.1075 3.1294 18.4524C3.16026 18.7973 3.30239 19.1228 3.53436 19.3799C3.76634 19.637 4.07559 19.8117 4.41551 19.8777L13.1249 21.587V31.2495C13.1248 31.6234 13.2365 31.9887 13.4456 32.2986C13.6547 32.6084 13.9517 32.8487 14.2983 32.9886C14.5214 33.0781 14.7595 33.1242 14.9999 33.1245C15.2515 33.124 15.5004 33.0728 15.7318 32.974C15.9632 32.8752 16.1723 32.7309 16.3468 32.5496L20.7218 28.0183L27.4405 33.9105C27.7811 34.2109 28.2192 34.3774 28.6733 34.3792C28.8717 34.3784 29.0687 34.3473 29.2577 34.2871C29.567 34.1891 29.8453 34.0118 30.0646 33.7727C30.2839 33.5336 30.4367 33.2411 30.5077 32.9245L36.8546 5.3308C36.8864 5.19251 36.8799 5.04817 36.8358 4.91329C36.7918 4.7784 36.7118 4.65806 36.6046 4.56517ZM4.37489 18.3402C4.36572 18.2646 4.38275 18.1882 4.42313 18.1236C4.4635 18.0591 4.52479 18.0103 4.59676 17.9855L31.8858 7.3058L13.6046 20.4074L4.6577 18.6511C4.58187 18.64 4.51223 18.6029 4.46066 18.5462C4.40909 18.4895 4.37878 18.4167 4.37489 18.3402ZM15.4483 31.6808C15.3619 31.7698 15.251 31.8311 15.1296 31.8568C15.0083 31.8826 14.882 31.8717 14.7669 31.8254C14.6518 31.7792 14.553 31.6997 14.4832 31.5972C14.4134 31.4946 14.3757 31.3736 14.3749 31.2495V22.4527L19.778 27.187L15.4483 31.6808ZM29.2889 32.6402C29.2648 32.7463 29.2133 32.8442 29.1397 32.9243C29.066 33.0045 28.9727 33.0639 28.869 33.0969C28.7653 33.1299 28.6548 33.1353 28.5484 33.1124C28.442 33.0896 28.3434 33.0394 28.2624 32.9667L14.7546 21.1214L35.3327 6.37455L29.2889 32.6402Z" fill="#494949"/>
</svg>
