<svg width="48" height="48" viewBox="0 0 48 48" fill="none" xmlns="http://www.w3.org/2000/svg">
<path d="M46.5 24C46.5074 28.4669 45.1788 32.834 42.685 36.54C40.6284 39.6074 37.8477 42.1208 34.5887 43.8579C31.3298 45.5951 27.693 46.5025 24 46.5C20.307 46.5025 16.6702 45.5951 13.4113 43.8579C10.1523 42.1208 7.37161 39.6074 5.315 36.54C3.35683 33.621 2.10976 30.2839 1.67376 26.7961C1.23777 23.3083 1.62499 19.7669 2.80437 16.4557C3.98375 13.1445 5.92249 10.1557 8.46517 7.72889C11.0078 5.30205 14.0837 3.50467 17.4463 2.48085C20.8088 1.45703 24.3644 1.23524 27.8281 1.83327C31.2918 2.43129 34.5672 3.83249 37.3918 5.92455C40.2163 8.0166 42.5115 10.7413 44.0932 13.8803C45.6749 17.0192 46.4992 20.4851 46.5 24Z" stroke="#F87F00" stroke-width="3"/>
<path d="M27.7509 16.5C27.7509 17.4946 27.3559 18.4484 26.6526 19.1517C25.9493 19.8549 24.9955 20.25 24.0009 20.25V22.75C24.8217 22.75 25.6344 22.5883 26.3927 22.2742C27.151 21.9602 27.84 21.4998 28.4204 20.9194C29.0007 20.3391 29.4611 19.6501 29.7752 18.8918C30.0893 18.1335 30.2509 17.3208 30.2509 16.5H27.7509ZM24.0009 20.25C23.0064 20.25 22.0525 19.8549 21.3493 19.1517C20.646 18.4484 20.2509 17.4946 20.2509 16.5H17.7509C17.7509 17.3208 17.9126 18.1335 18.2267 18.8918C18.5408 19.6501 19.0012 20.3391 19.5815 20.9194C20.7536 22.0915 22.3433 22.75 24.0009 22.75V20.25ZM20.2509 16.5C20.2509 15.5054 20.646 14.5516 21.3493 13.8483C22.0525 13.1451 23.0064 12.75 24.0009 12.75V10.25C22.3433 10.25 20.7536 10.9085 19.5815 12.0806C18.4094 13.2527 17.7509 14.8424 17.7509 16.5H20.2509ZM24.0009 12.75C24.9955 12.75 25.9493 13.1451 26.6526 13.8483C27.3559 14.5516 27.7509 15.5054 27.7509 16.5H30.2509C30.2509 14.8424 29.5925 13.2527 28.4204 12.0806C27.2483 10.9085 25.6585 10.25 24.0009 10.25V12.75ZM6.91594 38.64L5.71594 38.285L5.52344 38.9375L5.96594 39.455L6.91594 38.64ZM41.0859 38.64L42.0359 39.455L42.4784 38.9375L42.2834 38.285L41.0859 38.64ZM16.5009 32.75H31.5009V30.25H16.5009V32.75ZM16.5009 30.25C14.0783 30.2504 11.7204 31.0326 9.77781 32.4802C7.83521 33.9278 6.40905 35.9636 5.71594 38.285L8.11344 38.9975C8.65308 37.1922 9.76073 35.6092 11.2718 34.4837C12.7829 33.3582 14.6167 32.7502 16.5009 32.75V30.25ZM24.0009 45.25C20.9341 45.2533 17.9031 44.5911 15.117 43.3092C12.3309 42.0273 9.85615 40.1562 7.86344 37.825L5.96594 39.455C8.19357 42.0594 10.9595 44.1497 14.0731 45.5817C17.1867 47.0138 20.5738 47.7536 24.0009 47.75V45.25ZM31.5009 32.75C33.3854 32.7503 35.2196 33.3587 36.7307 34.4847C38.2418 35.6107 39.3492 37.1943 39.8884 39L42.2834 38.285C41.5903 35.9636 40.1667 33.9278 38.2241 32.4802C36.2815 31.0326 33.9236 30.2504 31.5009 30.25V32.75ZM40.1384 37.825C38.1457 40.1562 35.6709 42.0273 32.8849 43.3092C30.0988 44.5911 27.0678 45.2533 24.0009 45.25V47.75C27.4281 47.7536 30.8152 47.0138 33.9288 45.5817C37.0423 44.1497 39.8083 42.0594 42.0359 39.455L40.1359 37.8275L40.1384 37.825Z" fill="#F87F00"/>
</svg>
