<svg width="31" height="26" viewBox="0 0 31 26" fill="none" xmlns="http://www.w3.org/2000/svg">
<path d="M0.455007 23.1264C3.35523 25.0066 6.73055 26 10.2155 26C15.319 26 19.9956 23.9972 23.3853 20.3609C26.6288 16.8806 28.413 12.2042 28.3243 7.4585C29.5538 6.38375 31 4.33159 31 2.33142C31 1.5647 30.1855 1.07799 29.5251 1.46869C28.37 2.16208 27.3166 2.34343 26.2333 2.03273C24.0209 -0.170111 20.7278 -0.634149 17.9529 0.893975C15.5278 2.22742 14.1795 4.66761 14.3009 7.33449C10.2038 6.82379 6.4186 4.72495 3.77943 1.46335C3.34609 0.931311 2.5238 0.993983 2.17922 1.5967C0.907922 3.82088 0.920974 6.39842 2.0265 8.47992C1.5005 8.5746 1.17549 9.02663 1.17549 9.516C1.17549 11.6082 2.09699 13.531 3.58103 14.8431C3.30432 15.1151 3.21296 15.5192 3.33043 15.8792C3.98304 17.882 5.46056 19.4475 7.30746 20.2315C5.29872 21.2116 3.07721 21.5383 1.09979 21.2903C0.07649 21.1489 -0.428634 22.5544 0.455007 23.1264ZM10.4831 20.5742C11.2153 19.9995 10.8264 18.8021 9.90748 18.7821C8.289 18.7474 6.81539 17.9327 5.89782 16.6512C6.34029 16.6219 6.79842 16.5526 7.23437 16.4326C8.22765 16.1579 8.18066 14.6938 7.17172 14.4871C5.34048 14.111 3.90342 12.7483 3.36436 10.9935C3.85644 11.1175 4.35764 11.1868 4.85755 11.1961C5.84822 11.2015 6.22282 9.90404 5.41488 9.36133C3.59408 8.13589 2.81747 5.97172 3.33173 3.93689C6.51127 7.22782 10.8251 9.21065 15.3881 9.43466C16.0421 9.476 16.5328 8.84795 16.3893 8.2119C15.7693 5.46634 17.2703 3.54219 18.8822 2.65545C20.4772 1.77538 23.0381 1.50069 25.0012 3.60486C25.5846 4.23291 27.5529 4.25691 28.554 4.01823C28.105 4.8823 27.4145 5.70236 26.7684 6.16373C26.493 6.36108 26.3351 6.68911 26.3521 7.0318C26.5622 11.4122 24.9646 15.7672 21.9691 18.9794C18.9514 22.2157 14.7786 23.9985 10.2168 23.9985C8.40255 23.9985 6.62352 23.6971 4.94239 23.1158C6.95244 22.7184 8.86199 21.849 10.4831 20.5742Z" fill="#494949"/>
</svg>
