<svg width="1480" height="1425" viewBox="0 0 1480 1425" fill="none" xmlns="http://www.w3.org/2000/svg">
<g opacity="0.25">
<g clip-path="url(#clip0_576_2233)">
<path d="M-100.137 -411C78.9969 -300 -151.534 150.144 -100.137 541.5C1.97447 1319 1051.27 1041.62 1499.31 647" stroke="#E8E8E8"/>
<path d="M-182 -0.5C235.247 257.5 687.289 1261.49 1531 1021.3" stroke="black"/>
<path d="M-111.436 -390.895C69.1432 -279.013 -139.453 164.536 -77.3175 549.127C33.0473 1300.95 1046.82 1046.51 1493.57 665.332" stroke="#DCDCDC"/>
<path d="M-115.204 -370.049C66.8721 -257.253 -118.981 179.459 -45.7131 557.034C73.2093 1282.23 1050.14 1051.57 1495.57 684.34" stroke="#D1D1D1"/>
<path d="M-119.106 -348.463C64.5204 -234.721 -97.7831 194.911 -12.9867 565.223C114.797 1262.85 1053.59 1056.82 1497.64 704.022" stroke="#C4C4C4"/>
<path d="M-123.141 -326.137C62.09 -211.416 -75.8561 210.892 20.8638 573.692C157.813 1242.81 1057.15 1062.25 1499.78 724.379" stroke="#B8B8B8"/>
<path d="M-127.309 -303.071C59.579 -187.339 -53.2022 227.404 55.8363 582.442C202.254 1222.1 1060.84 1067.85 1501.99 745.411" stroke="#ABABAB"/>
<path d="M-131.611 -279.265C56.9864 -162.489 -29.8225 244.445 91.9299 591.473C248.121 1200.73 1064.64 1073.64 1504.28 767.117" stroke="#9D9D9D"/>
<path d="M-136.051 -254.719C54.3103 -136.866 -5.71897 262.017 129.143 600.784C295.41 1178.69 1068.56 1079.61 1506.63 789.499" stroke="#8F8F8F"/>
<path d="M-140.619 -229.433C51.5584 -110.471 19.1163 280.118 167.482 610.377C344.131 1155.99 1072.59 1085.75 1509.05 812.555" stroke="#818181"/>
<path d="M-145.324 -203.406C48.723 -83.3035 44.6754 298.749 206.941 620.25C394.274 1132.62 1076.75 1092.08 1511.55 836.286" stroke="#727272"/>
<path d="M-150.162 -176.64C45.8079 -55.3637 70.9623 317.909 247.523 630.403C445.844 1108.59 1081.02 1098.58 1514.11 860.692" stroke="#636363"/>
<path d="M-155.135 -149.134C42.8112 -26.6512 97.975 337.599 289.226 640.837C498.839 1083.89 1085.41 1105.27 1516.75 885.772" stroke="#545454"/>
<path d="M-160.242 -120.887C39.7329 2.83395 125.714 357.819 332.05 651.552C553.258 1058.53 1089.92 1112.13 1519.46 911.528" stroke="#444444"/>
<path d="M-165.479 -91.9004C36.5779 33.0918 154.183 378.569 376 662.549C609.108 1032.51 1094.55 1119.18 1522.24 937.958" stroke="#343434"/>
<path d="M-170.853 -62.1738C33.3403 64.1218 183.377 399.849 421.07 673.825C666.381 1005.82 1099.3 1126.4 1525.09 965.063" stroke="#232323"/>
<path d="M-176.358 -31.707C30.0231 95.9246 213.299 421.658 467.263 685.382C725.082 978.462 1104.16 1133.81 1528.01 992.843" stroke="#121212"/>
<g opacity="0.39">
<path d="M-49.9434 -443.92C-130.176 2989.59 1034.95 37.4191 2100.15 2103.44" stroke="black"/>
<path d="M0.0117188 -730.999C-733.424 4795.21 1722.55 -1565.4 2376.77 1801.04" stroke="#E6E6E6"/>
<path d="M-48.0312 -454.91C-153.264 3058.69 1061.27 -23.9288 2110.74 2091.87" stroke="#090909"/>
<path d="M-45.9551 -466.828C-178.299 3133.63 1089.81 -90.4545 2122.22 2079.31" stroke="#121212"/>
<path d="M-43.7207 -479.673C-205.285 3214.4 1120.57 -162.158 2134.59 2065.78" stroke="#1D1D1D"/>
<path d="M-41.3262 -493.446C-234.221 3301 1153.55 -239.039 2147.86 2051.28" stroke="#282828"/>
<path d="M-38.7656 -508.145C-265.1 3393.44 1188.75 -321.097 2162.03 2035.79" stroke="#333333"/>
<path d="M-36.0469 -523.773C-297.932 3491.7 1226.18 -408.333 2177.08 2019.33" stroke="#404040"/>
<path d="M-33.166 -540.328C-332.711 3595.8 1265.82 -500.746 2193.03 2001.89" stroke="#4D4D4D"/>
<path d="M-30.123 -557.811C-369.439 3705.73 1307.69 -598.338 2209.87 1983.48" stroke="#5B5B5B"/>
<path d="M-26.9219 -576.221C-408.118 3821.5 1351.77 -701.106 2227.61 1964.08" stroke="#6A6A6A"/>
<path d="M-23.5547 -595.559C-448.741 3943.09 1398.08 -809.053 2246.24 1943.71" stroke="#797979"/>
<path d="M-20.0391 -615.761C-491.325 4070.58 1446.6 -922.114 2265.75 1922.43" stroke="#8A8A8A"/>
<path d="M-16.3516 -636.954C-535.848 4203.84 1497.35 -1040.42 2286.17 1900.11" stroke="#9B9B9B"/>
<path d="M-12.502 -659.074C-582.318 4342.94 1550.32 -1163.89 2307.48 1876.81" stroke="#ACACAC"/>
<path d="M-8.49219 -682.121C-630.738 4487.86 1605.51 -1292.55 2329.68 1852.53" stroke="#BFBFBF"/>
<path d="M-4.32031 -706.097C-681.106 4638.62 1662.92 -1426.38 2352.78 1827.27" stroke="#D2D2D2"/>
</g>
</g>
</g>
<defs>
<clipPath id="clip0_576_2233">
<rect width="1480" height="1425" fill="white"/>
</clipPath>
</defs>
</svg>
