<svg width="1480" height="1425" viewBox="0 0 1480 1425" fill="none" xmlns="http://www.w3.org/2000/svg">
<g clip-path="url(#clip0_585_1930)">
<g opacity="0.15">
<path d="M-9.33752 -168C162.794 -66.4944 -58.7251 345.146 -9.3366 703.027C88.7827 1414.02 1097.06 1160.37 1527.58 799.503" stroke="#E8E8E8"/>
<path d="M-88 207.389C312.936 443.321 747.307 1361.43 1558.04 1141.79" stroke="black"/>
<path d="M-17.9766 -161.299C154.661 -59.4995 -59.1767 349.944 -6.02783 705.57C94.982 1408.01 1090.82 1162 1520.89 805.614" stroke="#E3E3E3"/>
<path d="M-19.3174 -154.239C153.853 -52.1303 -51.8894 354.997 5.22207 708.247C109.278 1401.67 1092 1163.71 1521.6 812.051" stroke="#DFDFDF"/>
<path d="M-20.7266 -146.817C153.004 -44.3825 -44.23 360.31 17.0466 711.063C124.304 1395 1093.25 1165.52 1522.35 818.818" stroke="#DBDBDB"/>
<path d="M-22.2061 -139.034C152.112 -36.258 -36.2002 365.882 29.4436 714.016C140.058 1388.02 1094.55 1167.41 1523.13 825.915" stroke="#D6D6D6"/>
<path d="M-23.7529 -130.891C151.18 -27.7584 -27.7973 371.71 42.4163 717.104C156.543 1380.71 1095.92 1169.39 1523.95 833.34" stroke="#D1D1D1"/>
<path d="M-25.3662 -122.388C150.209 -18.8821 -19.0202 377.798 55.9655 720.33C173.761 1373.07 1097.35 1171.46 1524.81 841.093" stroke="#CBCBCB"/>
<path d="M-27.0508 -113.523C149.193 -9.62864 -9.87381 384.143 70.0863 723.693C191.705 1365.11 1098.83 1173.61 1525.71 849.176" stroke="#C6C6C6"/>
<path d="M-28.8008 -104.298C148.139 0.00045947 -0.352269 390.747 84.7846 727.192C210.383 1356.83 1100.38 1175.85 1526.64 857.587" stroke="#C0C0C0"/>
<path d="M-30.623 -94.7139C147.041 10.0052 9.5376 397.608 100.054 730.828C229.787 1348.22 1101.99 1178.18 1527.6 866.326" stroke="#BABABA"/>
<path d="M-32.5117 -84.7676C145.903 20.3876 19.8016 404.728 115.899 734.601C249.923 1339.3 1103.66 1180.6 1528.6 875.396" stroke="#B4B4B4"/>
<path d="M-34.4688 -74.4609C144.724 31.1462 30.4379 412.106 132.319 738.511C270.789 1330.04 1105.39 1183.11 1529.64 884.793" stroke="#AEAEAE"/>
<path d="M-36.4961 -63.7939C143.502 42.2809 41.4444 419.742 149.312 742.557C292.383 1320.47 1107.17 1185.7 1530.71 894.52" stroke="#A7A7A7"/>
<path d="M-38.5889 -52.7676C142.241 53.7908 52.8261 427.634 166.882 746.739C314.71 1310.56 1109.03 1188.38 1531.83 904.573" stroke="#A1A1A1"/>
<path d="M-40.752 -41.3789C140.938 65.6789 64.5781 435.787 185.025 751.06C337.765 1300.34 1110.94 1191.15 1532.97 914.958" stroke="#999999"/>
<path d="M-42.9834 -29.6304C139.593 77.9426 76.7022 444.197 203.742 755.517C361.551 1289.79 1112.91 1194 1534.16 925.67" stroke="#929292"/>
<path d="M-45.2832 -17.521C138.207 90.5829 89.1986 452.865 223.034 760.11C386.066 1278.92 1114.94 1196.94 1535.38 936.712" stroke="#8B8B8B"/>
<path d="M-47.6523 -5.05127C136.78 103.599 102.066 461.792 242.9 764.841C411.311 1267.72 1117.03 1199.98 1536.63 948.082" stroke="#838383"/>
<path d="M-50.0889 7.78027C135.312 116.994 115.307 470.977 263.341 769.709C437.287 1256.21 1119.18 1203.09 1537.93 959.782" stroke="#7B7B7B"/>
<path d="M-52.5938 20.9702C133.802 130.762 128.92 480.419 284.357 774.712C463.993 1244.36 1121.4 1206.3 1539.26 971.808" stroke="#737373"/>
<path d="M-55.167 34.5229C132.252 144.909 142.905 490.121 305.947 779.854C491.428 1232.2 1123.67 1209.59 1540.62 984.166" stroke="#6B6B6B"/>
<path d="M-57.8105 48.4346C130.659 159.431 157.261 500.079 328.11 785.131C519.593 1219.7 1126 1212.98 1542.02 996.851" stroke="#626262"/>
<path d="M-60.5205 62.707C129.026 174.329 171.991 510.296 350.849 790.545C548.489 1206.89 1128.4 1216.44 1543.46 1009.86" stroke="#595959"/>
<path d="M-63.3008 77.3408C127.351 189.604 187.091 520.772 374.161 796.096C578.113 1193.75 1130.85 1220 1544.93 1023.21" stroke="#505050"/>
<path d="M-66.1484 92.3345C125.635 205.255 202.564 531.505 398.049 801.784C608.469 1180.29 1133.37 1223.65 1546.44 1036.88" stroke="#474747"/>
<path d="M-69.0654 107.688C123.877 221.283 218.408 542.496 422.51 807.608C639.553 1166.5 1135.94 1227.38 1547.99 1050.88" stroke="#3E3E3E"/>
<path d="M-72.0488 123.403C122.08 237.686 234.627 553.744 447.547 813.569C671.37 1152.39 1138.58 1231.2 1549.58 1065.21" stroke="#343434"/>
<path d="M-75.1025 139.479C120.239 254.467 251.216 565.253 473.158 819.667C703.915 1137.96 1141.28 1235.1 1551.19 1079.87" stroke="#2A2A2A"/>
<path d="M-78.2256 155.915C118.357 271.623 268.176 577.018 499.342 825.902C737.189 1123.2 1144.03 1239.1 1552.85 1094.85" stroke="#202020"/>
<path d="M-81.4131 172.711C116.437 289.157 285.512 589.042 526.104 832.274C771.197 1108.12 1146.86 1243.18 1554.54 1110.17" stroke="#151515"/>
<path d="M-84.6738 189.87C114.472 307.068 303.216 601.325 553.436 838.784C805.93 1092.72 1149.73 1247.35 1556.27 1125.81" stroke="#0B0B0B"/>
</g>
<g opacity="0.15">
<path d="M-74.25 179.819C-125.344 2366.36 616.64 486.348 1294.98 1802.04" stroke="black"/>
<path d="M-42.4375 -3C-509.508 3516.23 1054.52 -534.365 1471.14 1609.47" stroke="#E6E6E6"/>
<path d="M-73.6631 176.446C-132.432 2387.58 624.719 467.516 1298.23 1798.49" stroke="#040404"/>
<path d="M-73.0479 172.904C-139.875 2409.85 633.2 447.743 1301.64 1794.76" stroke="#090909"/>
<path d="M-72.4023 169.195C-147.67 2433.18 642.085 427.032 1305.22 1790.85" stroke="#0D0D0D"/>
<path d="M-71.7266 165.317C-155.818 2457.58 651.375 405.381 1308.96 1786.77" stroke="#121212"/>
<path d="M-71.0234 161.271C-164.321 2483.02 661.065 382.79 1312.86 1782.51" stroke="#171717"/>
<path d="M-70.29 157.056C-173.177 2509.53 671.159 359.259 1316.92 1778.07" stroke="#1D1D1D"/>
<path d="M-69.5273 152.673C-182.387 2537.1 681.657 334.789 1321.14 1773.45" stroke="#222222"/>
<path d="M-68.7344 148.123C-191.949 2565.72 692.559 309.38 1325.53 1768.66" stroke="#282828"/>
<path d="M-67.915 143.403C-201.868 2595.41 703.86 283.031 1330.07 1763.68" stroke="#2E2E2E"/>
<path d="M-67.0635 138.516C-212.138 2626.15 715.568 255.742 1334.78 1758.54" stroke="#343434"/>
<path d="M-66.1836 133.46C-222.762 2657.95 727.678 227.515 1339.65 1753.21" stroke="#3A3A3A"/>
<path d="M-65.2734 128.235C-233.739 2690.81 740.192 198.345 1344.69 1747.71" stroke="#414141"/>
<path d="M-64.3359 122.843C-245.071 2724.72 753.107 168.238 1349.88 1742.03" stroke="#484848"/>
<path d="M-63.3682 117.282C-256.756 2759.7 766.426 137.191 1355.24 1736.17" stroke="#4F4F4F"/>
<path d="M-62.3711 111.553C-268.795 2795.73 780.148 105.205 1360.76 1730.13" stroke="#565656"/>
<path d="M-61.3447 105.655C-281.187 2832.83 794.273 72.2783 1366.44 1723.92" stroke="#5D5D5D"/>
<path d="M-60.29 99.5903C-293.934 2870.98 808.801 38.4133 1372.29 1717.53" stroke="#656565"/>
<path d="M-59.2051 93.3555C-307.033 2910.19 823.732 3.60687 1378.3 1710.97" stroke="#6D6D6D"/>
<path d="M-58.0908 86.9541C-320.486 2950.45 839.067 -32.1371 1384.46 1704.22" stroke="#757575"/>
<path d="M-56.9473 80.3828C-334.293 2991.78 854.805 -68.8225 1390.8 1697.3" stroke="#7D7D7D"/>
<path d="M-55.7754 73.644C-348.454 3034.16 870.944 -106.447 1397.29 1690.2" stroke="#868686"/>
<path d="M-54.5742 66.7368C-362.969 3077.61 887.487 -145.01 1403.94 1682.93" stroke="#8E8E8E"/>
<path d="M-53.3418 59.6616C-377.836 3122.11 904.435 -184.514 1410.76 1675.47" stroke="#979797"/>
<path d="M-52.0811 52.4175C-393.057 3167.67 921.785 -224.957 1417.74 1667.84" stroke="#A0A0A0"/>
<path d="M-50.792 45.0059C-408.632 3214.29 939.537 -266.339 1424.88 1660.04" stroke="#AAAAAA"/>
<path d="M-49.4727 37.4253C-424.561 3261.96 957.693 -308.661 1432.19 1652.05" stroke="#B3B3B3"/>
<path d="M-48.125 29.6772C-440.844 3310.7 976.252 -351.922 1439.65 1643.89" stroke="#BDBDBD"/>
<path d="M-46.7461 21.7607C-457.479 3360.5 995.215 -396.123 1447.28 1635.55" stroke="#C7C7C7"/>
<path d="M-45.3408 13.6753C-474.47 3411.35 1014.58 -441.264 1455.07 1627.03" stroke="#D1D1D1"/>
<path d="M-43.9043 5.42188C-491.813 3463.26 1034.35 -487.345 1463.02 1618.34" stroke="#DBDBDB"/>
</g>
</g>
<defs>
<clipPath id="clip0_585_1930">
<rect width="1480" height="1425" fill="white"/>
</clipPath>
</defs>
</svg>
