<svg width="60" height="60" viewBox="0 0 60 60" fill="none" xmlns="http://www.w3.org/2000/svg">
<circle cx="30" cy="30" r="30" fill="white"/>
<g clip-path="url(#clip0_831_5725)">
<path d="M30 15C29.0672 14.9777 28.1394 15.1421 27.271 15.4837C26.4027 15.8253 25.6115 16.337 24.9439 16.9889C24.2763 17.6407 23.7457 18.4195 23.3835 19.2794C23.0213 20.1393 22.8347 21.0629 22.8347 21.996C22.8347 22.9291 23.0213 23.8527 23.3835 24.7126C23.7457 25.5725 24.2763 26.3513 24.9439 27.0031C25.6115 27.655 26.4027 28.1667 27.271 28.5083C28.1394 28.8498 29.0672 29.0143 30 28.992C30.9328 29.0143 31.8606 28.8498 32.729 28.5083C33.5973 28.1667 34.3885 27.655 35.0561 27.0031C35.7237 26.3513 36.2543 25.5725 36.6165 24.7126C36.9787 23.8527 37.1653 22.9291 37.1653 21.996C37.1653 21.0629 36.9787 20.1393 36.6165 19.2794C36.2543 18.4195 35.7237 17.6407 35.0561 16.9889C34.3885 16.337 33.5973 15.8253 32.729 15.4837C31.8606 15.1421 30.9328 14.9777 30 15ZM26 32.988C24.1435 32.988 22.363 33.7255 21.0503 35.0382C19.7375 36.351 19 38.1315 19 39.988V44.982H41V39.988C41 38.1315 40.2625 36.351 38.9497 35.0382C37.637 33.7255 35.8565 32.988 34 32.988H26Z" fill="#F87F00"/>
</g>
<defs>
<clipPath id="clip0_831_5725">
<rect width="30" height="30" fill="white" transform="translate(15 15)"/>
</clipPath>
</defs>
</svg>
