<svg width="35" height="35" viewBox="0 0 35 35" fill="none" xmlns="http://www.w3.org/2000/svg">
<path d="M24.0627 18.9584C22.3127 18.9584 19.5856 19.4542 17.5002 20.4167C15.4147 19.4397 12.6877 18.9584 10.9377 18.9584C7.77308 18.9584 1.4585 20.5334 1.4585 23.698V27.7084H33.5418V23.698C33.5418 20.5334 27.2272 18.9584 24.0627 18.9584ZM18.2293 25.5209H3.646V23.698C3.646 22.9105 7.37933 21.1459 10.9377 21.1459C14.496 21.1459 18.2293 22.9105 18.2293 23.698V25.5209ZM31.3543 25.5209H20.4168V23.698C20.4168 23.0272 20.1252 22.4438 19.6585 21.9188C20.9418 21.4813 22.5168 21.1459 24.0627 21.1459C27.621 21.1459 31.3543 22.9105 31.3543 23.698V25.5209ZM10.9377 17.5001C13.7522 17.5001 16.0418 15.2105 16.0418 12.3959C16.0418 9.58133 13.7522 7.29175 10.9377 7.29175C8.12308 7.29175 5.8335 9.58133 5.8335 12.3959C5.8335 15.2105 8.12308 17.5001 10.9377 17.5001ZM10.9377 9.47925C12.5418 9.47925 13.8543 10.7917 13.8543 12.3959C13.8543 14.0001 12.5418 15.3126 10.9377 15.3126C9.3335 15.3126 8.021 14.0001 8.021 12.3959C8.021 10.7917 9.3335 9.47925 10.9377 9.47925ZM24.0627 17.5001C26.8772 17.5001 29.1668 15.2105 29.1668 12.3959C29.1668 9.58133 26.8772 7.29175 24.0627 7.29175C21.2481 7.29175 18.9585 9.58133 18.9585 12.3959C18.9585 15.2105 21.2481 17.5001 24.0627 17.5001ZM24.0627 9.47925C25.6668 9.47925 26.9793 10.7917 26.9793 12.3959C26.9793 14.0001 25.6668 15.3126 24.0627 15.3126C22.4585 15.3126 21.146 14.0001 21.146 12.3959C21.146 10.7917 22.4585 9.47925 24.0627 9.47925Z" fill="#FEFEFE"/>
</svg>
