<svg width="40" height="41" viewBox="0 0 40 41" fill="none" xmlns="http://www.w3.org/2000/svg">
<path d="M25.9917 7.50781H14.0084C10.1417 7.50781 7.00781 10.6423 7.00781 14.5084V26.4917C7.00781 30.3584 10.1423 33.4923 14.0089 33.4923H25.9911C29.8578 33.4923 32.9923 30.3578 32.9923 26.4911V14.5084C32.9923 10.6417 29.8584 7.50781 25.9917 7.50781Z" stroke="white" stroke-width="2" stroke-miterlimit="10"/>
<path d="M19.9998 26.772C23.4638 26.772 26.272 23.9638 26.272 20.4998C26.272 17.0357 23.4638 14.2275 19.9998 14.2275C16.5357 14.2275 13.7275 17.0357 13.7275 20.4998C13.7275 23.9638 16.5357 26.772 19.9998 26.772Z" stroke="white" stroke-width="2" stroke-miterlimit="10"/>
<path d="M27.6163 14.2278C28.3586 14.2278 28.9602 13.6261 28.9602 12.8839C28.9602 12.1417 28.3586 11.54 27.6163 11.54C26.8741 11.54 26.2725 12.1417 26.2725 12.8839C26.2725 13.6261 26.8741 14.2278 27.6163 14.2278Z" fill="white"/>
</svg>
