<svg width="40" height="40" viewBox="0 0 40 40" fill="none" xmlns="http://www.w3.org/2000/svg">
<path d="M25.9917 7.00781H14.0084C10.1417 7.00781 7.00781 10.1423 7.00781 14.0084V25.9917C7.00781 29.8584 10.1423 32.9923 14.0089 32.9923H25.9911C29.8578 32.9923 32.9923 29.8578 32.9923 25.9911V14.0084C32.9923 10.1417 29.8584 7.00781 25.9917 7.00781Z" stroke="#494949" stroke-width="2" stroke-miterlimit="10"/>
<path d="M19.9998 26.272C23.4638 26.272 26.272 23.4638 26.272 19.9998C26.272 16.5357 23.4638 13.7275 19.9998 13.7275C16.5357 13.7275 13.7275 16.5357 13.7275 19.9998C13.7275 23.4638 16.5357 26.272 19.9998 26.272Z" stroke="#494949" stroke-width="2" stroke-miterlimit="10"/>
<path d="M27.6163 13.7278C28.3586 13.7278 28.9602 13.1261 28.9602 12.3839C28.9602 11.6417 28.3586 11.04 27.6163 11.04C26.8741 11.04 26.2725 11.6417 26.2725 12.3839C26.2725 13.1261 26.8741 13.7278 27.6163 13.7278Z" fill="#494949"/>
</svg>
