<svg width="64" height="64" viewBox="0 0 64 64" fill="none" xmlns="http://www.w3.org/2000/svg">
<path d="M54 10.5H10C9.07174 10.5 8.1815 10.8687 7.52513 11.5251C6.86875 12.1815 6.5 13.0717 6.5 14V46C6.5 46.9283 6.86875 47.8185 7.52513 48.4749C8.1815 49.1312 9.07174 49.5 10 49.5H24.8675C24.9543 49.501 25.0394 49.5245 25.1144 49.5684C25.1893 49.6122 25.2516 49.6748 25.295 49.75L29 55.8C29.31 56.3184 29.7489 56.7477 30.274 57.0462C30.7991 57.3447 31.3925 57.5022 31.9965 57.5035C32.6005 57.5047 33.1945 57.3497 33.7208 57.0534C34.2471 56.757 34.6878 56.3296 35 55.8125L38.705 49.75C38.7484 49.6748 38.8107 49.6122 38.8856 49.5684C38.9606 49.5245 39.0457 49.501 39.1325 49.5H54C54.9283 49.5 55.8185 49.1312 56.4749 48.4749C57.1312 47.8185 57.5 46.9283 57.5 46V14C57.5 13.0717 57.1312 12.1815 56.4749 11.5251C55.8185 10.8687 54.9283 10.5 54 10.5ZM54.5 46C54.5 46.1326 54.4473 46.2598 54.3536 46.3535C54.2598 46.4473 54.1326 46.5 54 46.5H39.1325C38.5294 46.499 37.9363 46.6538 37.4107 46.9495C36.8851 47.2451 36.4448 47.6716 36.1325 48.1875L32.43 54.25C32.386 54.3258 32.323 54.3887 32.2471 54.4324C32.1712 54.4761 32.0851 54.4991 31.9975 54.4991C31.9099 54.4991 31.8238 54.4761 31.7479 54.4324C31.672 54.3887 31.609 54.3258 31.565 54.25L27.865 48.195C27.5517 47.6797 27.1113 47.2534 26.586 46.957C26.0607 46.6607 25.4681 46.5042 24.865 46.5025H10C9.86739 46.5025 9.74021 46.4498 9.64645 46.356C9.55268 46.2623 9.5 46.1351 9.5 46.0025V14C9.5 13.8674 9.55268 13.7402 9.64645 13.6464C9.74021 13.5527 9.86739 13.5 10 13.5H54C54.1326 13.5 54.2598 13.5527 54.3536 13.6464C54.4473 13.7402 54.5 13.8674 54.5 14V46ZM34.5 30C34.5 30.4945 34.3534 30.9778 34.0787 31.3889C33.804 31.8 33.4135 32.1205 32.9567 32.3097C32.4999 32.4989 31.9972 32.5484 31.5123 32.452C31.0273 32.3555 30.5819 32.1174 30.2322 31.7678C29.8826 31.4181 29.6445 30.9727 29.548 30.4877C29.4516 30.0028 29.5011 29.5001 29.6903 29.0433C29.8795 28.5865 30.2 28.196 30.6111 27.9213C31.0222 27.6466 31.5055 27.5 32 27.5C32.663 27.5 33.2989 27.7634 33.7678 28.2322C34.2366 28.7011 34.5 29.337 34.5 30ZM23.5 30C23.5 30.4945 23.3534 30.9778 23.0787 31.3889C22.804 31.8 22.4135 32.1205 21.9567 32.3097C21.4999 32.4989 20.9972 32.5484 20.5123 32.452C20.0273 32.3555 19.5819 32.1174 19.2322 31.7678C18.8826 31.4181 18.6445 30.9727 18.548 30.4877C18.4516 30.0028 18.5011 29.5001 18.6903 29.0433C18.8795 28.5865 19.2 28.196 19.6111 27.9213C20.0222 27.6466 20.5055 27.5 21 27.5C21.663 27.5 22.2989 27.7634 22.7678 28.2322C23.2366 28.7011 23.5 29.337 23.5 30ZM45.5 30C45.5 30.4945 45.3534 30.9778 45.0787 31.3889C44.804 31.8 44.4135 32.1205 43.9567 32.3097C43.4999 32.4989 42.9972 32.5484 42.5123 32.452C42.0273 32.3555 41.5819 32.1174 41.2322 31.7678C40.8826 31.4181 40.6445 30.9727 40.548 30.4877C40.4516 30.0028 40.5011 29.5001 40.6903 29.0433C40.8795 28.5865 41.2 28.196 41.6111 27.9213C42.0222 27.6466 42.5055 27.5 43 27.5C43.663 27.5 44.2989 27.7634 44.7678 28.2322C45.2366 28.7011 45.5 29.337 45.5 30Z" fill="#494949"/>
</svg>
