<svg width="25" height="25" viewBox="0 0 25 25" fill="none" xmlns="http://www.w3.org/2000/svg">
<path d="M13.8672 17.1875C13.8672 17.3429 13.8055 17.4919 13.6956 17.6018C13.5857 17.7117 13.4367 17.7734 13.2813 17.7734C12.9187 17.7734 12.5709 17.6294 12.3145 17.373C12.0581 17.1166 11.9141 16.7689 11.9141 16.4062V12.5C11.9141 12.4482 11.8935 12.3985 11.8569 12.3619C11.8202 12.3253 11.7706 12.3047 11.7188 12.3047C11.5634 12.3047 11.4143 12.243 11.3044 12.1331C11.1945 12.0232 11.1328 11.8742 11.1328 11.7188C11.1328 11.5633 11.1945 11.4143 11.3044 11.3044C11.4143 11.1945 11.5634 11.1328 11.7188 11.1328C12.0814 11.1328 12.4291 11.2769 12.6855 11.5333C12.9419 11.7896 13.0859 12.1374 13.0859 12.5V16.4062C13.0859 16.458 13.1065 16.5077 13.1431 16.5444C13.1798 16.581 13.2295 16.6016 13.2813 16.6016C13.4367 16.6016 13.5857 16.6633 13.6956 16.7732C13.8055 16.8831 13.8672 17.0321 13.8672 17.1875ZM12.1094 9.17969C12.3025 9.17969 12.4913 9.12241 12.6519 9.01511C12.8125 8.9078 12.9377 8.75528 13.0116 8.57684C13.0855 8.3984 13.1049 8.20204 13.0672 8.01261C13.0295 7.82317 12.9365 7.64917 12.7999 7.51259C12.6633 7.37602 12.4893 7.28301 12.2999 7.24533C12.1105 7.20765 11.9141 7.22699 11.7357 7.3009C11.5572 7.37481 11.4047 7.49998 11.2974 7.66058C11.1901 7.82117 11.1328 8.00998 11.1328 8.20312C11.1328 8.46213 11.2357 8.71052 11.4188 8.89366C11.602 9.0768 11.8504 9.17969 12.1094 9.17969ZM22.4609 12.5C22.4609 14.4701 21.8767 16.3959 20.7822 18.034C19.6877 19.6721 18.132 20.9488 16.3119 21.7027C14.4918 22.4566 12.489 22.6539 10.5567 22.2695C8.62449 21.8852 6.84962 20.9365 5.45656 19.5434C4.0635 18.1504 3.11481 16.3755 2.73046 14.4433C2.34612 12.5111 2.54338 10.5082 3.2973 8.68811C4.05122 6.86799 5.32794 5.3123 6.966 4.21778C8.60407 3.12326 10.5299 2.53906 12.5 2.53906C15.1409 2.54216 17.6727 3.59261 19.54 5.45998C21.4074 7.32735 22.4578 9.85915 22.4609 12.5ZM21.2891 12.5C21.2891 10.7617 20.7736 9.06241 19.8078 7.61706C18.8421 6.1717 17.4694 5.04519 15.8634 4.37996C14.2574 3.71474 12.4903 3.54069 10.7853 3.87982C9.08043 4.21894 7.51437 5.05602 6.2852 6.28519C5.05603 7.51437 4.21895 9.08043 3.87982 10.7853C3.54069 12.4903 3.71475 14.2574 4.37997 15.8634C5.04519 17.4694 6.17171 18.8421 7.61706 19.8078C9.06242 20.7736 10.7617 21.2891 12.5 21.2891C14.8302 21.2865 17.0642 20.3597 18.712 18.712C20.3597 17.0642 21.2865 14.8302 21.2891 12.5Z" fill="#494949"/>
</svg>
