<svg width="40" height="41" viewBox="0 0 40 41" fill="none" xmlns="http://www.w3.org/2000/svg">
<path d="M36.6046 5.06566C36.4968 4.97249 36.3655 4.91057 36.2251 4.88661C36.0846 4.86265 35.9403 4.87756 35.8077 4.92973L4.14208 17.3219C3.81927 17.4472 3.54594 17.674 3.36329 17.9682C3.18063 18.2624 3.09854 18.608 3.1294 18.9529C3.16026 19.2978 3.30239 19.6233 3.53436 19.8804C3.76634 20.1374 4.07559 20.3122 4.41551 20.3782L13.1249 22.0875V31.75C13.1248 32.1239 13.2365 32.4892 13.4456 32.799C13.6547 33.1089 13.9517 33.3492 14.2983 33.4891C14.5214 33.5786 14.7595 33.6247 14.9999 33.625C15.2515 33.6245 15.5004 33.5733 15.7318 33.4745C15.9632 33.3757 16.1723 33.2313 16.3468 33.05L20.7218 28.5188L27.4405 34.411C27.7811 34.7114 28.2192 34.8779 28.6733 34.8797C28.8717 34.8789 29.0687 34.8478 29.2577 34.7875C29.567 34.6896 29.8453 34.5123 30.0646 34.2732C30.2839 34.0341 30.4367 33.7416 30.5077 33.425L36.8546 5.83129C36.8864 5.693 36.8799 5.54866 36.8358 5.41378C36.7918 5.27889 36.7118 5.15855 36.6046 5.06566ZM4.37489 18.8407C4.36572 18.7651 4.38275 18.6886 4.42313 18.6241C4.4635 18.5596 4.52479 18.5108 4.59676 18.486L31.8858 7.80629L13.6046 20.9079L4.6577 19.1516C4.58187 19.1405 4.51223 19.1034 4.46066 19.0467C4.40909 18.99 4.37878 18.9172 4.37489 18.8407ZM15.4483 32.1813C15.3619 32.2703 15.251 32.3316 15.1296 32.3573C15.0083 32.3831 14.882 32.3721 14.7669 32.3259C14.6518 32.2797 14.553 32.2002 14.4832 32.0976C14.4134 31.9951 14.3757 31.8741 14.3749 31.75V22.9532L19.778 27.6875L15.4483 32.1813ZM29.2889 33.1407C29.2648 33.2468 29.2133 33.3447 29.1397 33.4248C29.066 33.5049 28.9727 33.5644 28.869 33.5974C28.7653 33.6304 28.6548 33.6358 28.5484 33.6129C28.442 33.5901 28.3434 33.5399 28.2624 33.4672L14.7546 21.6219L35.3327 6.87504L29.2889 33.1407Z" fill="white"/>
</svg>
