<svg width="35" height="36" viewBox="0 0 35 36" fill="none" xmlns="http://www.w3.org/2000/svg">
<path fill-rule="evenodd" clip-rule="evenodd" d="M7.4072 7.89226C12.9416 2.36518 21.9395 2.42351 27.5074 7.99289C33.0782 13.5637 33.1366 22.566 27.6007 28.1004C22.0664 33.6348 13.0641 33.5779 7.49324 28.0071C5.92626 26.4465 4.74231 24.5441 4.03433 22.449C3.32635 20.3539 3.11362 18.1232 3.41283 15.9321C3.45208 15.6445 3.60397 15.3843 3.83507 15.2087C4.06617 15.0331 4.35755 14.9565 4.64512 14.9958C4.93268 15.0351 5.19288 15.1869 5.36846 15.418C5.54404 15.6491 5.62062 15.9405 5.58137 16.2281C5.32738 18.085 5.50744 19.9755 6.1074 21.7511C6.70735 23.5267 7.71086 25.1389 9.03908 26.4612C13.7714 31.1921 21.3882 31.2198 26.0549 26.5546C30.7201 21.8879 30.6924 14.271 25.9616 9.53872C21.2322 4.8108 13.6197 4.78018 8.95303 9.43955L10.0439 9.44393C10.1875 9.4446 10.3296 9.47355 10.462 9.52914C10.5945 9.58472 10.7147 9.66585 10.8158 9.76789C10.9169 9.86993 10.9969 9.99088 11.0512 10.1238C11.1056 10.2568 11.1332 10.3991 11.1325 10.5428C11.1318 10.6864 11.1029 10.8285 11.0473 10.961C10.9917 11.0934 10.9106 11.2136 10.8086 11.3147C10.7065 11.4158 10.5856 11.4958 10.4526 11.5501C10.3197 11.6045 10.1773 11.6321 10.0337 11.6314L6.32074 11.6139C6.03243 11.6124 5.75638 11.4971 5.55265 11.2931C5.34892 11.0891 5.23397 10.8129 5.23283 10.5246L5.21387 6.81455C5.2131 6.67092 5.24063 6.52854 5.29489 6.39555C5.34915 6.26256 5.42907 6.14155 5.53009 6.03945C5.63112 5.93734 5.75126 5.85613 5.88367 5.80046C6.01607 5.74479 6.15815 5.71574 6.30178 5.71497C6.44542 5.7142 6.58779 5.74174 6.72079 5.79599C6.85378 5.85025 6.97479 5.93017 7.07689 6.0312C7.179 6.13222 7.2602 6.25236 7.31588 6.38477C7.37155 6.51718 7.4006 6.65925 7.40137 6.80289L7.4072 7.89372V7.89226ZM17.4989 11.0714C17.7889 11.0714 18.0671 11.1867 18.2723 11.3918C18.4774 11.5969 18.5926 11.8751 18.5926 12.1652V17.5464L21.9191 20.8714C22.0236 20.9723 22.107 21.0929 22.1644 21.2263C22.2217 21.3598 22.252 21.5033 22.2533 21.6485C22.2546 21.7937 22.227 21.9377 22.1721 22.0722C22.1172 22.2066 22.036 22.3288 21.9334 22.4315C21.8307 22.5343 21.7086 22.6156 21.5742 22.6706C21.4399 22.7257 21.2958 22.7534 21.1506 22.7522C21.0054 22.751 20.8619 22.7209 20.7284 22.6637C20.5949 22.6064 20.4742 22.5231 20.3732 22.4187L16.4066 18.4521V12.1666C16.4066 11.8766 16.5218 11.5984 16.7269 11.3932C16.932 11.1881 17.2102 11.0729 17.5003 11.0729L17.4989 11.0714Z" fill="#393939"/>
</svg>
