<svg width="31" height="27" viewBox="0 0 31 27" fill="none" xmlns="http://www.w3.org/2000/svg">
<path d="M0.455007 23.6264C3.35523 25.5066 6.73055 26.5 10.2155 26.5C15.319 26.5 19.9956 24.4972 23.3853 20.8609C26.6288 17.3806 28.413 12.7042 28.3243 7.9585C29.5538 6.88375 31 4.83159 31 2.83142C31 2.0647 30.1855 1.57799 29.5251 1.96869C28.37 2.66208 27.3166 2.84343 26.2333 2.53273C24.0209 0.329889 20.7278 -0.134149 17.9529 1.39397C15.5278 2.72742 14.1795 5.16761 14.3009 7.83449C10.2038 7.32379 6.4186 5.22495 3.77943 1.96335C3.34609 1.43131 2.5238 1.49398 2.17922 2.0967C0.907922 4.32088 0.920974 6.89842 2.0265 8.97992C1.5005 9.0746 1.17549 9.52663 1.17549 10.016C1.17549 12.1082 2.09699 14.031 3.58103 15.3431C3.30432 15.6151 3.21296 16.0192 3.33043 16.3792C3.98304 18.382 5.46056 19.9475 7.30746 20.7315C5.29872 21.7116 3.07721 22.0383 1.09979 21.7903C0.07649 21.6489 -0.428634 23.0544 0.455007 23.6264ZM10.4831 21.0742C11.2153 20.4995 10.8264 19.3021 9.90748 19.2821C8.289 19.2474 6.81539 18.4327 5.89782 17.1512C6.34029 17.1219 6.79842 17.0526 7.23437 16.9326C8.22765 16.6579 8.18066 15.1938 7.17172 14.9871C5.34048 14.611 3.90342 13.2483 3.36436 11.4935C3.85644 11.6175 4.35764 11.6868 4.85755 11.6961C5.84822 11.7015 6.22282 10.404 5.41488 9.86133C3.59408 8.63589 2.81747 6.47172 3.33173 4.43689C6.51127 7.72782 10.8251 9.71065 15.3881 9.93466C16.0421 9.976 16.5328 9.34795 16.3893 8.7119C15.7693 5.96634 17.2703 4.04219 18.8822 3.15545C20.4772 2.27538 23.0381 2.00069 25.0012 4.10486C25.5846 4.73291 27.5529 4.75691 28.554 4.51823C28.105 5.3823 27.4145 6.20236 26.7684 6.66373C26.493 6.86108 26.3351 7.18911 26.3521 7.5318C26.5622 11.9122 24.9646 16.2672 21.9691 19.4794C18.9514 22.7157 14.7786 24.4985 10.2168 24.4985C8.40255 24.4985 6.62352 24.1971 4.94239 23.6158C6.95244 23.2184 8.86199 22.349 10.4831 21.0742Z" fill="white"/>
</svg>
